<svg viewBox="0 0 24 24"><defs><style>.c{fill:#fff;}</style></defs><g id="a"></g><g id="b"><g><path d="M8.83,6.33c.36-.62,1.02-1,1.73-1h2.87c.71,0,1.37,.38,1.73,1l.96,1.67h2.54c.74,0,1.33,.6,1.33,1.33v8c0,.73-.6,1.33-1.33,1.33H5.33c-.74,0-1.33-.6-1.33-1.33V9.33c0-.73,.6-1.33,1.33-1.33h2.54l.96-1.67Zm1.73,.33c-.24,0-.46,.13-.58,.33l-1.35,2.33h-3.31v8h13.33V9.33h-3.31l-1.35-2.33c-.12-.21-.34-.33-.58-.33h-2.87Z" class="c"/><path d="M12,10.67c-1.1,0-2,.89-2,2s.9,2,2,2,2-.89,2-2-.9-2-2-2Zm-3.33,2c0-1.84,1.49-3.33,3.33-3.33s3.33,1.49,3.33,3.33-1.49,3.33-3.33,3.33-3.33-1.49-3.33-3.33Z" class="c"/></g></g></svg>