<svg width="57" height="54" viewBox="0 0 57 54" fill="none" xmlns="http://www.w3.org/2000/svg">
<path fill-rule="evenodd" clip-rule="evenodd" d="M28.3417 0C12.6917 0 0 12.0593 0 26.9134C0 41.7766 12.6917 53.8361 28.3417 53.8361C43.9916 53.8361 56.6833 41.7766 56.6833 26.9134C56.6833 12.0593 43.9916 0 28.3417 0ZM28.3417 5.29925C40.938 5.29925 51.0532 14.9811 51.0532 26.9134C51.0532 38.8548 40.938 48.5368 28.3417 48.5368C15.7454 48.5368 5.63016 38.8548 5.63016 26.9134C5.63016 14.9811 15.7454 5.29925 28.3417 5.29925ZM28.3417 16.8595C22.5207 16.8595 17.7493 21.3692 17.7493 26.9134C17.7493 32.4667 22.5207 36.9765 28.3417 36.9765C34.1627 36.9765 38.934 32.4667 38.934 26.9134C38.934 21.3692 34.1627 16.8595 28.3417 16.8595ZM28.3417 22.1496C31.109 22.1496 33.3993 24.291 33.3993 26.9134C33.3993 29.5449 31.109 31.6865 28.3417 31.6865C25.5743 31.6865 23.2841 29.5449 23.2841 26.9134C23.2841 24.291 25.5743 22.1496 28.3417 22.1496Z" fill="black"/>
</svg>
