<svg width="59" height="38" viewBox="0 0 59 38" fill="none" xmlns="http://www.w3.org/2000/svg">
<path d="M42.7277 2.41418C43.5087 1.63314 44.7757 1.63314 45.5568 2.41418L56.8702 13.7277C57.6513 14.5087 57.6513 15.7757 56.8702 16.5568C56.0892 17.3377 54.8221 17.3378 54.0411 16.5568L46.0001 8.51477V35.0001C46 36.1046 45.1046 37 44.0001 37.0001C42.8956 37.0001 42.0002 36.1046 42.0001 35.0001V8.79797L34.2423 16.5568C33.4613 17.3374 32.1951 17.3375 31.4142 16.5568C30.6331 15.7757 30.6331 14.5087 31.4142 13.7277L42.7277 2.41418Z" fill="black"/>
<path d="M15.0001 1C16.1046 1.00008 17.0001 1.89548 17.0001 3V29.7686L25.0411 21.7275C25.8222 20.9465 27.0892 20.9466 27.8702 21.7275C28.6513 22.5086 28.6513 23.7756 27.8702 24.5566L16.5568 35.8701C15.7757 36.6512 14.5087 36.6512 13.7277 35.8701L2.41418 24.5566C1.63314 23.7756 1.63314 22.5086 2.41418 21.7275C3.19513 20.9468 4.46129 20.9469 5.24231 21.7275L13.0001 29.4854V3C13.0001 1.89543 13.8956 1 15.0001 1Z" fill="black"/>
</svg>
