<svg width="100" height="100" viewBox="0 0 100 100" fill="none" xmlns="http://www.w3.org/2000/svg">
<path fill-rule="evenodd" clip-rule="evenodd" d="M50 100C77.6142 100 100 77.6142 100 50C100 22.3858 77.6142 0 50 0C22.3858 0 0 22.3858 0 50C0 77.6142 22.3858 100 50 100ZM35.5126 33.0126C35.8408 32.6844 36.2859 32.5 36.75 32.5H43.25C43.7141 32.5 44.1592 32.6844 44.4874 33.0126C44.8156 33.3408 45 33.7859 45 34.25V65.75C45 66.2141 44.8156 66.6592 44.4874 66.9874C44.1592 67.3156 43.7141 67.5 43.25 67.5H36.75C36.2859 67.5 35.8408 67.3156 35.5126 66.9874C35.1844 66.6592 35 66.2141 35 65.75V34.25C35 33.7859 35.1844 33.3408 35.5126 33.0126ZM55.5126 33.0126C55.8408 32.6844 56.2859 32.5 56.75 32.5H63.25C63.7141 32.5 64.1592 32.6844 64.4874 33.0126C64.8156 33.3408 65 33.7859 65 34.25V65.75C65 66.2141 64.8156 66.6592 64.4874 66.9874C64.1592 67.3156 63.7141 67.5 63.25 67.5H56.75C56.2859 67.5 55.8408 67.3156 55.5126 66.9874C55.1844 66.6592 55 66.2141 55 65.75V34.25C55 33.7859 55.1844 33.3408 55.5126 33.0126Z" fill="white"/>
</svg>
