<svg width="100" height="100" viewBox="0 0 100 100" fill="none" xmlns="http://www.w3.org/2000/svg">
<path fill-rule="evenodd" clip-rule="evenodd" d="M50 100C77.6142 100 100 77.6143 100 50C100 22.3857 77.6142 0 50 0C22.3858 0 0 22.3857 0 50C0 77.6143 22.3858 100 50 100ZM37.7337 33.4068C37.5803 33.6731 37.4997 33.9751 37.5 34.2825V65.72C37.5001 66.0271 37.581 66.3288 37.7347 66.5948C37.8883 66.8607 38.1092 67.0816 38.3752 67.2351C38.6413 67.3886 38.943 67.4695 39.2501 67.4694C39.5573 67.4694 39.859 67.3885 40.125 67.235L67.35 51.515C67.6158 51.3613 67.8365 51.1404 67.9899 50.8745C68.1433 50.6086 68.2241 50.307 68.2241 50C68.2241 49.693 68.1433 49.3914 67.9899 49.1254C67.8365 48.8595 67.6158 48.6387 67.35 48.485L40.125 32.765C39.8588 32.6113 39.5569 32.5305 39.2495 32.5305C38.9422 32.5306 38.6402 32.6116 38.3742 32.7654C38.1081 32.9193 37.8872 33.1405 37.7337 33.4068Z" fill="white"/>
</svg>
